<mxfile host="Electron" modified="2023-04-23T06:50:30.670Z" agent="Mozilla/5.0 (Windows NT 10.0; Win64; x64) AppleWebKit/537.36 (KHTML, like Gecko) draw.io/21.1.2 Chrome/106.0.5249.199 Electron/21.4.3 Safari/537.36" etag="jOvG0Q1cDeBNRDRmezGr" version="21.1.2" type="device">
  <diagram id="C5RBs43oDa-KdzZeNtuy" name="Page-1">
    <mxGraphModel dx="821" dy="522" grid="1" gridSize="10" guides="1" tooltips="1" connect="1" arrows="1" fold="1" page="1" pageScale="1" pageWidth="827" pageHeight="1169" math="0" shadow="0">
      <root>
        <mxCell id="WIyWlLk6GJQsqaUBKTNV-0" />
        <mxCell id="WIyWlLk6GJQsqaUBKTNV-1" parent="WIyWlLk6GJQsqaUBKTNV-0" />
        <mxCell id="pYjcvrBYENqXiIdlI-6S-35" style="edgeStyle=orthogonalEdgeStyle;rounded=0;orthogonalLoop=1;jettySize=auto;html=1;exitX=0.5;exitY=1;exitDx=0;exitDy=0;entryX=0.5;entryY=0;entryDx=0;entryDy=0;" edge="1" parent="WIyWlLk6GJQsqaUBKTNV-1" source="pYjcvrBYENqXiIdlI-6S-28" target="pYjcvrBYENqXiIdlI-6S-31">
          <mxGeometry relative="1" as="geometry" />
        </mxCell>
        <mxCell id="pYjcvrBYENqXiIdlI-6S-28" value="Start" style="rounded=1;whiteSpace=wrap;html=1;" vertex="1" parent="WIyWlLk6GJQsqaUBKTNV-1">
          <mxGeometry x="353" y="260" width="120" height="40" as="geometry" />
        </mxCell>
        <mxCell id="pYjcvrBYENqXiIdlI-6S-36" style="edgeStyle=orthogonalEdgeStyle;rounded=0;orthogonalLoop=1;jettySize=auto;html=1;exitX=0.5;exitY=1;exitDx=0;exitDy=0;entryX=0.5;entryY=0;entryDx=0;entryDy=0;" edge="1" parent="WIyWlLk6GJQsqaUBKTNV-1" source="pYjcvrBYENqXiIdlI-6S-31" target="pYjcvrBYENqXiIdlI-6S-33">
          <mxGeometry relative="1" as="geometry" />
        </mxCell>
        <mxCell id="pYjcvrBYENqXiIdlI-6S-31" value="Generate Random Word" style="rounded=1;whiteSpace=wrap;html=1;" vertex="1" parent="WIyWlLk6GJQsqaUBKTNV-1">
          <mxGeometry x="353" y="330" width="120" height="40" as="geometry" />
        </mxCell>
        <mxCell id="pYjcvrBYENqXiIdlI-6S-38" style="edgeStyle=orthogonalEdgeStyle;rounded=0;orthogonalLoop=1;jettySize=auto;html=1;exitX=0.5;exitY=1;exitDx=0;exitDy=0;entryX=0.5;entryY=0;entryDx=0;entryDy=0;" edge="1" parent="WIyWlLk6GJQsqaUBKTNV-1" source="pYjcvrBYENqXiIdlI-6S-32" target="pYjcvrBYENqXiIdlI-6S-34">
          <mxGeometry relative="1" as="geometry" />
        </mxCell>
        <mxCell id="pYjcvrBYENqXiIdlI-6S-32" value="User Inputs letter of his choice" style="rounded=1;whiteSpace=wrap;html=1;" vertex="1" parent="WIyWlLk6GJQsqaUBKTNV-1">
          <mxGeometry x="353" y="490" width="120" height="40" as="geometry" />
        </mxCell>
        <mxCell id="pYjcvrBYENqXiIdlI-6S-37" style="edgeStyle=orthogonalEdgeStyle;rounded=0;orthogonalLoop=1;jettySize=auto;html=1;exitX=0.5;exitY=1;exitDx=0;exitDy=0;" edge="1" parent="WIyWlLk6GJQsqaUBKTNV-1" source="pYjcvrBYENqXiIdlI-6S-33" target="pYjcvrBYENqXiIdlI-6S-32">
          <mxGeometry relative="1" as="geometry" />
        </mxCell>
        <mxCell id="pYjcvrBYENqXiIdlI-6S-33" value="Print the blank spaces for the word" style="rounded=1;whiteSpace=wrap;html=1;" vertex="1" parent="WIyWlLk6GJQsqaUBKTNV-1">
          <mxGeometry x="353" y="410" width="120" height="40" as="geometry" />
        </mxCell>
        <mxCell id="pYjcvrBYENqXiIdlI-6S-46" style="edgeStyle=orthogonalEdgeStyle;rounded=0;orthogonalLoop=1;jettySize=auto;html=1;exitX=0;exitY=0.5;exitDx=0;exitDy=0;entryX=0.5;entryY=0;entryDx=0;entryDy=0;" edge="1" parent="WIyWlLk6GJQsqaUBKTNV-1" source="pYjcvrBYENqXiIdlI-6S-34" target="pYjcvrBYENqXiIdlI-6S-39">
          <mxGeometry relative="1" as="geometry" />
        </mxCell>
        <mxCell id="pYjcvrBYENqXiIdlI-6S-52" value="Yes" style="edgeLabel;html=1;align=center;verticalAlign=middle;resizable=0;points=[];" vertex="1" connectable="0" parent="pYjcvrBYENqXiIdlI-6S-46">
          <mxGeometry x="-0.3714" y="2" relative="1" as="geometry">
            <mxPoint x="14" y="-2" as="offset" />
          </mxGeometry>
        </mxCell>
        <mxCell id="pYjcvrBYENqXiIdlI-6S-47" style="edgeStyle=orthogonalEdgeStyle;rounded=0;orthogonalLoop=1;jettySize=auto;html=1;exitX=1;exitY=0.5;exitDx=0;exitDy=0;entryX=0.5;entryY=0;entryDx=0;entryDy=0;" edge="1" parent="WIyWlLk6GJQsqaUBKTNV-1" source="pYjcvrBYENqXiIdlI-6S-34" target="pYjcvrBYENqXiIdlI-6S-42">
          <mxGeometry relative="1" as="geometry" />
        </mxCell>
        <mxCell id="pYjcvrBYENqXiIdlI-6S-53" value="No" style="edgeLabel;html=1;align=center;verticalAlign=middle;resizable=0;points=[];" vertex="1" connectable="0" parent="pYjcvrBYENqXiIdlI-6S-47">
          <mxGeometry x="-0.2429" y="-1" relative="1" as="geometry">
            <mxPoint x="-23" y="-1" as="offset" />
          </mxGeometry>
        </mxCell>
        <mxCell id="pYjcvrBYENqXiIdlI-6S-34" value="Is the letter &lt;br&gt;persent in &lt;br&gt;the word" style="rhombus;whiteSpace=wrap;html=1;" vertex="1" parent="WIyWlLk6GJQsqaUBKTNV-1">
          <mxGeometry x="353" y="560" width="120" height="90" as="geometry" />
        </mxCell>
        <mxCell id="pYjcvrBYENqXiIdlI-6S-48" style="edgeStyle=orthogonalEdgeStyle;rounded=0;orthogonalLoop=1;jettySize=auto;html=1;exitX=0.5;exitY=1;exitDx=0;exitDy=0;entryX=0.5;entryY=0;entryDx=0;entryDy=0;" edge="1" parent="WIyWlLk6GJQsqaUBKTNV-1" source="pYjcvrBYENqXiIdlI-6S-39" target="pYjcvrBYENqXiIdlI-6S-41">
          <mxGeometry relative="1" as="geometry" />
        </mxCell>
        <mxCell id="pYjcvrBYENqXiIdlI-6S-39" value="Print word in blank" style="rounded=1;whiteSpace=wrap;html=1;" vertex="1" parent="WIyWlLk6GJQsqaUBKTNV-1">
          <mxGeometry x="233" y="685" width="120" height="40" as="geometry" />
        </mxCell>
        <mxCell id="pYjcvrBYENqXiIdlI-6S-50" style="edgeStyle=orthogonalEdgeStyle;rounded=0;orthogonalLoop=1;jettySize=auto;html=1;exitX=0.5;exitY=1;exitDx=0;exitDy=0;entryX=0.5;entryY=0;entryDx=0;entryDy=0;" edge="1" parent="WIyWlLk6GJQsqaUBKTNV-1" source="pYjcvrBYENqXiIdlI-6S-41" target="pYjcvrBYENqXiIdlI-6S-44">
          <mxGeometry relative="1" as="geometry" />
        </mxCell>
        <mxCell id="pYjcvrBYENqXiIdlI-6S-55" value="Yes" style="edgeLabel;html=1;align=center;verticalAlign=middle;resizable=0;points=[];" vertex="1" connectable="0" parent="pYjcvrBYENqXiIdlI-6S-50">
          <mxGeometry x="-0.2919" relative="1" as="geometry">
            <mxPoint as="offset" />
          </mxGeometry>
        </mxCell>
        <mxCell id="pYjcvrBYENqXiIdlI-6S-57" style="edgeStyle=orthogonalEdgeStyle;rounded=0;orthogonalLoop=1;jettySize=auto;html=1;exitX=0;exitY=0.5;exitDx=0;exitDy=0;entryX=0;entryY=0.5;entryDx=0;entryDy=0;" edge="1" parent="WIyWlLk6GJQsqaUBKTNV-1" source="pYjcvrBYENqXiIdlI-6S-41" target="pYjcvrBYENqXiIdlI-6S-32">
          <mxGeometry relative="1" as="geometry" />
        </mxCell>
        <mxCell id="pYjcvrBYENqXiIdlI-6S-59" value="No" style="edgeLabel;html=1;align=center;verticalAlign=middle;resizable=0;points=[];" vertex="1" connectable="0" parent="pYjcvrBYENqXiIdlI-6S-57">
          <mxGeometry x="-0.1284" y="2" relative="1" as="geometry">
            <mxPoint as="offset" />
          </mxGeometry>
        </mxCell>
        <mxCell id="pYjcvrBYENqXiIdlI-6S-41" value="Is the word &lt;br&gt;complete" style="rhombus;whiteSpace=wrap;html=1;" vertex="1" parent="WIyWlLk6GJQsqaUBKTNV-1">
          <mxGeometry x="233" y="760" width="120" height="90" as="geometry" />
        </mxCell>
        <mxCell id="pYjcvrBYENqXiIdlI-6S-49" style="edgeStyle=orthogonalEdgeStyle;rounded=0;orthogonalLoop=1;jettySize=auto;html=1;exitX=0.5;exitY=1;exitDx=0;exitDy=0;entryX=0.5;entryY=0;entryDx=0;entryDy=0;" edge="1" parent="WIyWlLk6GJQsqaUBKTNV-1" source="pYjcvrBYENqXiIdlI-6S-42" target="pYjcvrBYENqXiIdlI-6S-43">
          <mxGeometry relative="1" as="geometry" />
        </mxCell>
        <mxCell id="pYjcvrBYENqXiIdlI-6S-42" value="Remove one life" style="rounded=1;whiteSpace=wrap;html=1;" vertex="1" parent="WIyWlLk6GJQsqaUBKTNV-1">
          <mxGeometry x="473" y="685" width="120" height="40" as="geometry" />
        </mxCell>
        <mxCell id="pYjcvrBYENqXiIdlI-6S-51" style="edgeStyle=orthogonalEdgeStyle;rounded=0;orthogonalLoop=1;jettySize=auto;html=1;exitX=0.5;exitY=1;exitDx=0;exitDy=0;entryX=0.5;entryY=0;entryDx=0;entryDy=0;" edge="1" parent="WIyWlLk6GJQsqaUBKTNV-1" source="pYjcvrBYENqXiIdlI-6S-43" target="pYjcvrBYENqXiIdlI-6S-45">
          <mxGeometry relative="1" as="geometry" />
        </mxCell>
        <mxCell id="pYjcvrBYENqXiIdlI-6S-56" value="No" style="edgeLabel;html=1;align=center;verticalAlign=middle;resizable=0;points=[];" vertex="1" connectable="0" parent="pYjcvrBYENqXiIdlI-6S-51">
          <mxGeometry x="-0.3185" relative="1" as="geometry">
            <mxPoint as="offset" />
          </mxGeometry>
        </mxCell>
        <mxCell id="pYjcvrBYENqXiIdlI-6S-58" style="edgeStyle=orthogonalEdgeStyle;rounded=0;orthogonalLoop=1;jettySize=auto;html=1;exitX=1;exitY=0.5;exitDx=0;exitDy=0;entryX=1;entryY=0.5;entryDx=0;entryDy=0;" edge="1" parent="WIyWlLk6GJQsqaUBKTNV-1" source="pYjcvrBYENqXiIdlI-6S-43" target="pYjcvrBYENqXiIdlI-6S-32">
          <mxGeometry relative="1" as="geometry" />
        </mxCell>
        <mxCell id="pYjcvrBYENqXiIdlI-6S-60" value="Yes" style="edgeLabel;html=1;align=center;verticalAlign=middle;resizable=0;points=[];" vertex="1" connectable="0" parent="pYjcvrBYENqXiIdlI-6S-58">
          <mxGeometry x="-0.1138" y="-3" relative="1" as="geometry">
            <mxPoint as="offset" />
          </mxGeometry>
        </mxCell>
        <mxCell id="pYjcvrBYENqXiIdlI-6S-43" value="Is there&lt;br&gt;any life left" style="rhombus;whiteSpace=wrap;html=1;" vertex="1" parent="WIyWlLk6GJQsqaUBKTNV-1">
          <mxGeometry x="473" y="760" width="120" height="90" as="geometry" />
        </mxCell>
        <mxCell id="pYjcvrBYENqXiIdlI-6S-44" value="Success" style="rounded=1;whiteSpace=wrap;html=1;" vertex="1" parent="WIyWlLk6GJQsqaUBKTNV-1">
          <mxGeometry x="233" y="895" width="120" height="40" as="geometry" />
        </mxCell>
        <mxCell id="pYjcvrBYENqXiIdlI-6S-45" value="Failed" style="rounded=1;whiteSpace=wrap;html=1;" vertex="1" parent="WIyWlLk6GJQsqaUBKTNV-1">
          <mxGeometry x="473" y="895" width="120" height="40" as="geometry" />
        </mxCell>
        <mxCell id="pYjcvrBYENqXiIdlI-6S-62" value="&lt;font style=&quot;font-size: 24px;&quot;&gt;Hangman Buisness requirement&lt;/font&gt;" style="text;html=1;strokeColor=none;fillColor=none;align=center;verticalAlign=middle;whiteSpace=wrap;rounded=0;" vertex="1" parent="WIyWlLk6GJQsqaUBKTNV-1">
          <mxGeometry x="219.5" y="150" width="387" height="30" as="geometry" />
        </mxCell>
      </root>
    </mxGraphModel>
  </diagram>
</mxfile>
